ply
format ascii 1.0
comment Created by Blender 2.81 (sub 16) - www.blender.org, source file: ''
element vertex 128
property float x
property float y
property float z
property float nx
property float ny
property float nz
property float s
property float t
element face 33
property list uchar uint vertex_indices
end_header
-2.001133 0.822232 1.504179 0.822431 -0.407770 0.396650 0.250000 0.490000
-0.964207 0.985701 -0.477775 0.822431 -0.407770 0.396650 0.250000 0.250000
-1.932043 1.001649 1.545370 0.822431 -0.407770 0.396650 0.296822 0.485388
-1.932043 1.001649 1.545370 0.874566 -0.241859 0.420283 0.296822 0.485388
-0.964207 0.985701 -0.477775 0.874566 -0.241859 0.420283 0.250000 0.250000
-1.884880 1.192184 1.556876 0.874566 -0.241859 0.420283 0.341844 0.471731
-1.884880 1.192184 1.556876 0.906222 -0.069261 0.417091 0.341844 0.471731
-0.964207 0.985701 -0.477775 0.906222 -0.069261 0.417091 0.250000 0.250000
-1.861456 1.386517 1.538253 0.906222 -0.069261 0.417091 0.383337 0.449553
-1.861456 1.386517 1.538253 0.916181 0.103396 0.387197 0.383337 0.449553
-0.964207 0.985701 -0.477775 0.916181 0.103396 0.387197 0.250000 0.250000
-1.862672 1.577178 1.490217 0.916181 0.103396 0.387197 0.419706 0.419706
-1.862672 1.577178 1.490217 0.904061 0.269472 0.331750 0.419706 0.419706
-0.964207 0.985701 -0.477775 0.904061 0.269472 0.331750 0.250000 0.250000
-1.888481 1.756841 1.414615 0.904061 0.269472 0.331750 0.449553 0.383337
-1.888481 1.756841 1.414615 0.870328 0.422588 0.252880 0.449553 0.383337
-0.964207 0.985701 -0.477775 0.870328 0.422588 0.252880 0.250000 0.250000
-1.937891 1.918601 1.314350 0.870328 0.422588 0.252880 0.471731 0.341844
-1.937891 1.918601 1.314350 0.816278 0.556858 0.153619 0.471731 0.341844
-0.964207 0.985701 -0.477775 0.816278 0.556858 0.153619 0.250000 0.250000
-2.009004 2.056242 1.193278 0.816278 0.556858 0.153619 0.485388 0.296822
-2.009004 2.056242 1.193278 0.743989 0.667123 0.037782 0.485388 0.296822
-0.964207 0.985701 -0.477775 0.743989 0.667123 0.037782 0.250000 0.250000
-2.099086 2.164475 1.056050 0.743989 0.667123 0.037782 0.490000 0.250000
-2.099086 2.164475 1.056050 0.656237 0.749147 -0.090183 0.490000 0.250000
-0.964207 0.985701 -0.477775 0.656237 0.749147 -0.090183 0.250000 0.250000
-2.204675 2.239140 0.907940 0.656237 0.749147 -0.090183 0.485388 0.203178
-2.204675 2.239140 0.907940 0.556397 0.799774 -0.225353 0.485388 0.203178
-0.964207 0.985701 -0.477775 0.556397 0.799774 -0.225353 0.250000 0.250000
-2.321715 2.277368 0.754640 0.556397 0.799774 -0.225353 0.471731 0.158156
-2.321715 2.277368 0.754640 0.448302 0.817062 -0.362539 0.471731 0.158156
-0.964207 0.985701 -0.477775 0.448302 0.817062 -0.362539 0.250000 0.250000
-2.445707 2.277689 0.602040 0.448302 0.817062 -0.362539 0.449553 0.116663
-2.445707 2.277689 0.602040 0.336110 0.800345 -0.496465 0.449553 0.116663
-0.964207 0.985701 -0.477775 0.336110 0.800345 -0.496465 0.250000 0.250000
-2.571886 2.240092 0.456006 0.336110 0.800345 -0.496465 0.419706 0.080294
-2.571886 2.240092 0.456006 0.224131 0.750267 -0.621984 0.419706 0.080294
-0.964207 0.985701 -0.477775 0.224131 0.750267 -0.621984 0.250000 0.250000
-2.695403 2.166021 0.322150 0.224131 0.750267 -0.621984 0.383337 0.050447
-2.695403 2.166021 0.322150 0.116667 0.668750 -0.734277 0.383337 0.050447
-0.964207 0.985701 -0.477775 0.116667 0.668750 -0.734277 0.250000 0.250000
-2.811512 2.058323 0.205614 0.116667 0.668750 -0.734277 0.341844 0.028269
-2.811512 2.058323 0.205614 0.017849 0.558928 -0.829024 0.341844 0.028269
-0.964207 0.985701 -0.477775 0.017849 0.558928 -0.829024 0.250000 0.250000
-2.915751 1.921136 0.110879 0.017849 0.558928 -0.829024 0.296822 0.014612
-2.915751 1.921136 0.110879 -0.068525 0.425022 -0.902586 0.296822 0.014612
-0.964207 0.985701 -0.477775 -0.068525 0.425022 -0.902586 0.250000 0.250000
-3.004113 1.759733 0.041584 -0.068525 0.425022 -0.902586 0.250000 0.010000
-3.004113 1.759733 0.041584 -0.139136 0.272177 -0.952135 0.250000 0.010000
-0.964207 0.985701 -0.477775 -0.139136 0.272177 -0.952135 0.250000 0.250000
-3.073203 1.580317 0.000392 -0.139136 0.272177 -0.952135 0.203178 0.014612
-3.073203 1.580317 0.000392 -0.191272 0.106266 -0.975768 0.203178 0.014612
-0.964207 0.985701 -0.477775 -0.191272 0.106266 -0.975768 0.250000 0.250000
-3.120366 1.389781 -0.011113 -0.191272 0.106266 -0.975768 0.158156 0.028269
-3.120366 1.389781 -0.011113 -0.222927 -0.066332 -0.972576 0.158156 0.028269
-0.964207 0.985701 -0.477775 -0.222927 -0.066332 -0.972576 0.250000 0.250000
-3.143790 1.195448 0.007510 -0.222927 -0.066332 -0.972576 0.116663 0.050447
-3.143790 1.195448 0.007510 -0.232887 -0.238988 -0.942682 0.116663 0.050447
-0.964207 0.985701 -0.477775 -0.232887 -0.238988 -0.942682 0.250000 0.250000
-3.142574 1.004787 0.055546 -0.232887 -0.238988 -0.942682 0.080294 0.080294
-3.142574 1.004787 0.055546 -0.220767 -0.405065 -0.887234 0.080294 0.080294
-0.964207 0.985701 -0.477775 -0.220767 -0.405065 -0.887234 0.250000 0.250000
-3.116765 0.825124 0.131148 -0.220767 -0.405065 -0.887234 0.050447 0.116663
-3.116765 0.825124 0.131148 -0.187034 -0.558181 -0.808364 0.050447 0.116663
-0.964207 0.985701 -0.477775 -0.187034 -0.558181 -0.808364 0.250000 0.250000
-3.067354 0.663364 0.231413 -0.187034 -0.558181 -0.808364 0.028269 0.158156
-3.067354 0.663364 0.231413 -0.132984 -0.692451 -0.709103 0.028269 0.158156
-0.964207 0.985701 -0.477775 -0.132984 -0.692451 -0.709103 0.250000 0.250000
-2.996242 0.525723 0.352485 -0.132984 -0.692451 -0.709103 0.014611 0.203179
-2.996242 0.525723 0.352485 -0.060694 -0.802716 -0.593265 0.014611 0.203179
-0.964207 0.985701 -0.477775 -0.060694 -0.802716 -0.593265 0.250000 0.250000
-2.906159 0.417490 0.489713 -0.060694 -0.802716 -0.593265 0.010000 0.250000
-2.906159 0.417490 0.489713 0.027058 -0.884739 -0.465301 0.010000 0.250000
-0.964207 0.985701 -0.477775 0.027058 -0.884739 -0.465301 0.250000 0.250000
-2.800570 0.342825 0.637823 0.027058 -0.884739 -0.465301 0.014612 0.296822
-2.800570 0.342825 0.637823 0.126899 -0.935367 -0.330130 0.014612 0.296822
-0.964207 0.985701 -0.477775 0.126899 -0.935367 -0.330130 0.250000 0.250000
-2.683530 0.304598 0.791124 0.126899 -0.935367 -0.330130 0.028269 0.341844
-2.683530 0.304598 0.791124 0.234993 -0.952654 -0.192945 0.028269 0.341844
-0.964207 0.985701 -0.477775 0.234993 -0.952654 -0.192945 0.250000 0.250000
-2.559538 0.304277 0.943723 0.234993 -0.952654 -0.192945 0.050447 0.383337
-2.559538 0.304277 0.943723 0.347185 -0.935938 -0.059019 0.050447 0.383337
-0.964207 0.985701 -0.477775 0.347185 -0.935938 -0.059019 0.250000 0.250000
-2.433359 0.341874 1.089757 0.347185 -0.935938 -0.059019 0.080295 0.419706
-2.433359 0.341874 1.089757 0.459165 -0.885859 0.066501 0.080295 0.419706
-0.964207 0.985701 -0.477775 0.459165 -0.885859 0.066501 0.250000 0.250000
-2.309842 0.415945 1.223614 0.459165 -0.885859 0.066501 0.116663 0.449553
-2.309842 0.415945 1.223614 0.566628 -0.804342 0.178793 0.116663 0.449553
-0.964207 0.985701 -0.477775 0.566628 -0.804342 0.178793 0.250000 0.250000
-2.193733 0.523643 1.340149 0.566628 -0.804342 0.178793 0.158156 0.471731
-2.193733 0.523643 1.340149 0.665446 -0.694520 0.273540 0.158156 0.471731
-0.964207 0.985701 -0.477775 0.665446 -0.694520 0.273540 0.250000 0.250000
-2.089495 0.660830 1.434884 0.665446 -0.694520 0.273540 0.203179 0.485389
-2.089495 0.660830 1.434884 0.751820 -0.560614 0.347101 0.203179 0.485389
-0.964207 0.985701 -0.477775 0.751820 -0.560614 0.347101 0.250000 0.250000
-2.001133 0.822232 1.504179 0.751820 -0.560614 0.347101 0.250000 0.490000
-2.001133 0.822232 1.504179 -0.766905 0.152184 0.623456 0.750000 0.490000
-1.932043 1.001649 1.545370 -0.766905 0.152184 0.623456 0.796822 0.485388
-1.884880 1.192184 1.556876 -0.766905 0.152184 0.623456 0.841844 0.471731
-1.861456 1.386517 1.538253 -0.766905 0.152184 0.623456 0.883337 0.449553
-1.862672 1.577178 1.490217 -0.766905 0.152184 0.623456 0.919706 0.419706
-1.888481 1.756841 1.414615 -0.766905 0.152184 0.623456 0.949553 0.383337
-1.937891 1.918601 1.314350 -0.766905 0.152184 0.623456 0.971731 0.341844
-2.009004 2.056242 1.193278 -0.766905 0.152184 0.623456 0.985388 0.296822
-2.099086 2.164475 1.056050 -0.766905 0.152184 0.623456 0.990000 0.250000
-2.204675 2.239140 0.907940 -0.766905 0.152184 0.623456 0.985388 0.203178
-2.321715 2.277368 0.754640 -0.766905 0.152184 0.623456 0.971731 0.158156
-2.445707 2.277689 0.602040 -0.766905 0.152184 0.623456 0.949553 0.116663
-2.571886 2.240092 0.456006 -0.766905 0.152184 0.623456 0.919706 0.080294
-2.695403 2.166021 0.322150 -0.766905 0.152184 0.623456 0.883337 0.050447
-2.811512 2.058323 0.205614 -0.766905 0.152184 0.623456 0.841844 0.028269
-2.915751 1.921136 0.110879 -0.766905 0.152184 0.623456 0.796822 0.014612
-3.004113 1.759733 0.041584 -0.766905 0.152184 0.623456 0.750000 0.010000
-3.073203 1.580317 0.000392 -0.766905 0.152184 0.623456 0.703178 0.014612
-3.120366 1.389781 -0.011113 -0.766905 0.152184 0.623456 0.658156 0.028269
-3.143790 1.195448 0.007510 -0.766905 0.152184 0.623456 0.616663 0.050447
-3.142574 1.004787 0.055546 -0.766905 0.152184 0.623456 0.580294 0.080294
-3.116765 0.825124 0.131148 -0.766905 0.152184 0.623456 0.550447 0.116663
-3.067354 0.663364 0.231413 -0.766905 0.152184 0.623456 0.528269 0.158156
-2.996242 0.525723 0.352485 -0.766905 0.152184 0.623456 0.514611 0.203179
-2.906159 0.417490 0.489713 -0.766905 0.152184 0.623456 0.510000 0.250000
-2.800570 0.342825 0.637823 -0.766905 0.152184 0.623456 0.514612 0.296822
-2.683530 0.304598 0.791124 -0.766905 0.152184 0.623456 0.528269 0.341844
-2.559538 0.304277 0.943723 -0.766905 0.152184 0.623456 0.550447 0.383337
-2.433359 0.341874 1.089757 -0.766905 0.152184 0.623456 0.580295 0.419706
-2.309842 0.415945 1.223614 -0.766905 0.152184 0.623456 0.616663 0.449553
-2.193733 0.523643 1.340149 -0.766905 0.152184 0.623456 0.658156 0.471731
-2.089495 0.660830 1.434884 -0.766905 0.152184 0.623456 0.703179 0.485389
3 0 1 2
3 3 4 5
3 6 7 8
3 9 10 11
3 12 13 14
3 15 16 17
3 18 19 20
3 21 22 23
3 24 25 26
3 27 28 29
3 30 31 32
3 33 34 35
3 36 37 38
3 39 40 41
3 42 43 44
3 45 46 47
3 48 49 50
3 51 52 53
3 54 55 56
3 57 58 59
3 60 61 62
3 63 64 65
3 66 67 68
3 69 70 71
3 72 73 74
3 75 76 77
3 78 79 80
3 81 82 83
3 84 85 86
3 87 88 89
3 90 91 92
3 93 94 95
32 96 97 98 99 100 101 102 103 104 105 106 107 108 109 110 111 112 113 114 115 116 117 118 119 120 121 122 123 124 125 126 127
